Coordinates
version=1
nRows=4
nColumns=107
inDegrees=yes

Units are S.I. units (second, meters, Newtons, ...)
If the header above contains a line with 'inDegrees', this indicates whether rotational values are in degrees (yes) or radians (no).

endheader
time	sternoclavicular_r2	sternoclavicular_r3	unrotscap_r3	unrotscap_r2	acromioclavicular_r2	acromioclavicular_r3	acromioclavicular_r1	unrothum_r1	unrothum_r3	unrothum_r2	elv_angle	shoulder_elv	shoulder1_r2	shoulder_rot	elbow_flexion	pro_sup	deviation	flexion	proximal_distal_r1	proximal_distal_r3	cmc_flexion	cmc_abduction	mp_flexion	ip_flexion	mcp2_flexion	mcp2_abduction	pm2_flexion	md2_flexion	mcp3_flexion	mcp3_abduction	pm3_flexion	md3_flexion	mcp4_flexion	mcp4_abduction	pm4_flexion	md4_flexion	mcp5_flexion	mcp5_abduction	pm5_flexion	md5_flexion	bicpt_tx	bicpt_ty	bicpt_tz	bicpt2_tx	bicpt2_ty	bicpt2_tz	ptpt_tx	ptpt_ty	ptpt_tz	FCUpt_tx	FCUpt_ty	FCUpt_tz	EDCpt_tx	EDCpt_ty	EDCpt_tz	APLpt_tx	APLpt_ty	APLpt_tz	FPLpt_tx	FPLpt_ty	FPLpt_tz	FPLpt2_tx	FPLpt2_ty	FPLpt2_tz	PEC1pt2_tx	PEC1pt2_ty	PEC1pt2_tz	PEC1pt3_tx	PEC1pt3_ty	PEC1pt3_tz	PEC2pt2_tx	PEC2pt2_ty	PEC2pt2_tz	PEC2pt3_tx	PEC2pt3_ty	PEC2pt3_tz	PEC3pt2_tx	PEC3pt2_ty	PEC3pt2_tz	PEC3pt3_tx	PEC3pt3_ty	PEC3pt3_tz	DELT2pt2a_tx	DELT2pt2a_ty	DELT2pt2a_tz	DELT2pt2_tx	DELT2pt2_ty	DELT2pt2_tz	LAT1pt2_tx	LAT1pt2_ty	LAT1pt2_tz	LAT1pt3_tx	LAT1pt3_ty	LAT1pt3_tz	LAT2pt2_tx	LAT2pt2_ty	LAT2pt2_tz	LAT2pt3_tx	LAT2pt3_ty	LAT2pt3_tz	LAT3pt2_tx	LAT3pt2_ty	LAT3pt2_tz	LAT3pt3_tx	LAT3pt3_ty	LAT3pt3_tz
      0.56666667	     -0.32255130	      0.13661751	     -0.13661751	      0.32255130	     -0.06531008	      0.52781307	      0.23724834	     -0.23724834	     -0.52781307	      0.06531008	     98.03711202	     76.36688709	     -1.71107039	    -22.53019130	     31.01965561	     37.93128561	      0.26213435	     -0.43918602	      0.29950999	     -0.21959301	     12.06360850	     10.37310488	    -40.97615789	    -64.49582186	     -1.75260308	     12.64546011	     16.86768451	    -16.31120103	     82.18208339	      7.94384156	     81.21317853	     41.41493696	     74.11143792	     -8.44443969	     79.34758981	     25.94384310	     29.23316914	    -13.99970501	    -17.71170396	      4.84463154	      0.00092603	     -0.03115533	     -0.00487267	      0.01656565	     -0.01862664	     -0.00768787	      0.00474731	     -0.06671227	     -0.00310557	      0.00757262	     -0.18353749	     -0.00037012	     -0.00455174	      0.00129675	      0.00016011	      0.00028782	      0.00011513	      0.00057564	      0.00036841	      0.00110524	      0.00062170	      0.00002960	     -0.00022074	     -0.00026489	      0.00250314	      0.00878220	      0.00610936	     -0.00818823	      0.01977056	     -0.01875233	      0.00250314	      0.00878220	      0.00610936	      0.00055154	      0.01832807	     -0.00963072	      0.00395550	      0.00488367	      0.01598610	      0.00000000	      0.00779966	      0.00000000	     -0.00717001	     -0.03313477	     -0.00643129	      0.01519364	     -0.00051089	     -0.00422595	     -0.00089095	      0.01493398	     -0.00610936	      0.00246071	      0.02155245	     -0.01781896	     -0.00598208	      0.01293996	     -0.00547296	     -0.01247327	      0.02732240	     -0.03058921	     -0.02341920	      0.01446729	     -0.00733971	     -0.01552795	      0.03156501	     -0.03822590
      0.60000000	     -0.32175211	      0.13627901	     -0.13627901	      0.32175211	     -0.06514826	      0.52650530	      0.23666051	     -0.23666051	     -0.52650530	      0.06514826	     98.16523568	     76.17767207	     -1.71330657	    -23.36965130	     31.15690752	     38.52533408	      0.25885120	     -0.43479939	      0.29645432	     -0.21739969	     11.73967122	     10.46561345	    -40.90484738	    -64.57763937	     -1.25504826	     12.63905274	     16.36661197	    -16.64091958	     82.15831978	      7.68949514	     80.87316088	     41.78788348	     73.86352878	     -8.50844432	     79.47295287	     26.06888688	     28.92639382	    -13.94400381	    -17.70489480	      4.85985607	      0.00093057	     -0.03117106	     -0.00487520	      0.01656917	     -0.01866393	     -0.00762593	      0.00470341	     -0.06674065	     -0.00315342	      0.00763211	     -0.18352543	     -0.00037513	     -0.00462303	      0.00132059	      0.00015642	      0.00028654	      0.00011462	      0.00057309	      0.00036678	      0.00110033	      0.00061893	      0.00003015	     -0.00021694	     -0.00026033	      0.00249694	      0.00876044	      0.00609422	     -0.00816795	      0.01972157	     -0.01870587	      0.00249694	      0.00876044	      0.00609422	      0.00055017	      0.01828266	     -0.00960686	      0.00394835	      0.00487157	      0.01596863	      0.00000000	      0.00776078	      0.00000000	     -0.00715224	     -0.03305267	     -0.00639902	      0.01564479	     -0.00053762	     -0.00455530	     -0.00088874	      0.01489698	     -0.00609422	      0.00245462	      0.02149905	     -0.01777481	     -0.00596726	      0.01290789	     -0.00545940	     -0.01244236	      0.02725470	     -0.03051342	     -0.02336117	      0.01443145	     -0.00732153	     -0.01548947	      0.03148680	     -0.03813119
      0.63333333	     -0.32095566	      0.13594167	     -0.13594167	      0.32095566	     -0.06498699	      0.52520201	      0.23607469	     -0.23607469	     -0.52520201	      0.06498699	     98.38871199	     75.98910515	     -1.71720697	    -24.24051906	     31.01830484	     38.94025533	      0.24449647	     -0.47144251	      0.28288741	     -0.23572126	     11.88831330	     10.63729518	    -41.01223537	    -64.97787766	     -0.23839711	     12.69149086	     14.72403274	    -14.67018035	     82.51967113	      7.74741634	     81.08567479	     37.79386980	     74.17989666	     -8.53072249	     80.34825353	     23.17940001	     28.88907211	    -13.99950246	    -16.80079409	      4.79172943	      0.00092599	     -0.03115517	     -0.00487265	      0.01657115	     -0.01862627	     -0.00758238	      0.00467275	     -0.06676047	     -0.00318685	      0.00767372	     -0.18351695	     -0.00037848	     -0.00467282	      0.00133731	      0.00015373	      0.00029622	      0.00011849	      0.00059245	      0.00037917	      0.00113750	      0.00063984	      0.00002990	     -0.00021869	     -0.00026243	      0.00249076	      0.00873875	      0.00607913	     -0.00814773	      0.01967275	     -0.01865956	      0.00249076	      0.00873875	      0.00607913	      0.00054881	      0.01823740	     -0.00958308	      0.00394120	      0.00485951	      0.01595114	      0.00000000	      0.00772214	      0.00000000	     -0.00713454	     -0.03297086	     -0.00636694	      0.01610306	     -0.00056561	     -0.00490759	     -0.00088654	      0.01486010	     -0.00607913	      0.00244854	      0.02144583	     -0.01773081	     -0.00595248	      0.01287594	     -0.00544589	     -0.01241156	      0.02718724	     -0.03043788	     -0.02330335	      0.01439573	     -0.00730340	     -0.01545113	      0.03140886	     -0.03803680
      0.66666667	     -0.32270361	      0.13668202	     -0.13668202	      0.32270361	     -0.06534092	      0.52806231	      0.23736037	     -0.23736037	     -0.52806231	      0.06534092	     97.99625630	     76.40294849	     -1.71035733	    -22.25492545	     30.96157519	     37.14483883	      0.25673664	     -0.46348304	      0.29447710	     -0.23174152	     11.79910049	     10.47796809	    -41.06502196	    -64.50311534	     -0.36235403	     12.70752527	     15.45647241	    -15.08621438	     82.26151913	      7.72321947	     81.30548436	     38.17115818	     73.89678409	     -8.58478616	     80.85396798	     23.88883265	     28.97637975	    -13.99379401	    -17.21403390	      4.82674024	      0.00092411	     -0.03114867	     -0.00487160	      0.01655975	     -0.01861086	     -0.00776911	      0.00480542	     -0.06667469	     -0.00304222	      0.00749404	     -0.18355330	     -0.00036308	     -0.00445737	      0.00126536	      0.00016471	      0.00029431	      0.00011772	      0.00058862	      0.00037672	      0.00113015	      0.00063571	      0.00003005	     -0.00021764	     -0.00026116	      0.00250432	      0.00878635	      0.00611224	     -0.00819210	      0.01977989	     -0.01876118	      0.00250432	      0.00878635	      0.00611224	      0.00055180	      0.01833672	     -0.00963527	      0.00395686	      0.00488598	      0.01598941	      0.00000000	      0.00780708	      0.00000000	     -0.00717339	     -0.03315042	     -0.00643745	      0.01504348	     -0.00050218	     -0.00412041	     -0.00089137	      0.01494103	     -0.00611224	      0.00246187	      0.02156263	     -0.01782737	     -0.00598490	      0.01294607	     -0.00547555	     -0.01247916	      0.02733530	     -0.03060365	     -0.02343026	      0.01447413	     -0.00734318	     -0.01553528	      0.03157991	     -0.03824395
